<?xml version="1.0" standalone="no"?>
<!DOCTYPE svg PUBLIC "-//W3C//DTD SVG 1.1//EN" "http://www.w3.org/Graphics/SVG/1.1/DTD/svg11.dtd" >
<svg xmlns="http://www.w3.org/2000/svg" xmlns:xlink="http://www.w3.org/1999/xlink" version="1.1">
<metadata>
Created by FontForge 20170731 at Wed Nov 14 13:46:24 2018
 By Aleksey,,,
JoannaVu
</metadata>
<defs>
<font id="thenutcracker" horiz-adv-x="295" >
  <font-face 
    font-family="thenutcracker"
    font-weight="500"
    font-stretch="normal"
    units-per-em="1000"
    panose-1="2 0 6 3 0 0 0 0 0 0"
    ascent="800"
    descent="-200"
    x-height="500"
    cap-height="720"
    bbox="23 -228.79 980 916"
    underline-thickness="50"
    underline-position="-200"
    unicode-range="U+0020-F8FE"
  />
<missing-glyph horiz-adv-x="364" 
d="M66 33h199v600h-199v-600zM33 0v666h265v-666h-265z" />
    <glyph glyph-name=".notdef" horiz-adv-x="364" 
d="M66 33h199v600h-199v-600zM33 0v666h265v-666h-265z" />
    <glyph glyph-name=".null" horiz-adv-x="0" 
 />
    <glyph glyph-name="nonmarkingreturn" horiz-adv-x="333" 
 />
    <glyph glyph-name="space" unicode=" " horiz-adv-x="300" 
 />
    <glyph glyph-name="quotesingle" unicode="'" horiz-adv-x="277" 
d="M64 566q102 6 142 29q13 7 21 49t10 81l2 38q0 -17 1.5 -42.5t9.5 -72t21 -54.5q15 -10 53.5 -16.5t69.5 -7.5l31 -2q-116 -9 -150 -30q-12 -7 -19.5 -50t-9.5 -83l-2 -39q0 6 -0.5 17t-3.5 39.5t-6.5 51t-11.5 43t-18 25.5q-14 6 -50 12.5t-61.5 9t-28.5 2.5zM180.5 653
q8.5 0 15 -6.5t6.5 -15t-6.5 -14.5t-15 -6t-14.5 6t-6 14.5t6 15t14.5 6.5zM294.5 658q8.5 0 14.5 -6.5t6 -15t-6 -14.5t-14.5 -6t-15 6t-6.5 14.5t6.5 15t15 6.5zM183.5 527q8.5 0 15 -6.5t6.5 -15t-6.5 -14.5t-15 -6t-14.5 6t-6 14.5t6 15t14.5 6.5zM298.5 525
q8.5 0 15 -6t6.5 -14.5t-6.5 -15t-15 -6.5t-14.5 6.5t-6 15t6 14.5t14.5 6z" />
    <glyph glyph-name="asterisk" unicode="*" horiz-adv-x="278" 
d="M199 552q-11 4 -28.5 8t-35.5 6.5t-34 4.5t-26 3l-10 1q79 4 125 21q-25 36 -83 92q67 -49 113 -63q8 20 12.5 56.5t5.5 63.5l2 26q2 -95 17 -143q19 11 46 36.5t45 45.5l18 21q-70 -90 -80 -135q19 -7 54.5 -12t60.5 -6l25 -2q-82 -6 -128 -20q13 -18 35.5 -41.5
t38.5 -38.5l16 -14q-78 54 -123 68q-7 -19 -12 -58t-7 -69l-1 -29q-3 96 -21 147q-41 -30 -104 -102q64 83 79 133z" />
    <glyph glyph-name="comma" unicode="," horiz-adv-x="151" 
d="M141 26q-12 5 -35.5 8.5t-40 5.5t-17.5 2q55 3 87 15q-8 11 -22.5 27t-24.5 26l-11 11q46 -34 79 -44q11 32 13 102q1 -66 12 -100q13 8 32 25.5t32 31.5l12 14q-48 -62 -56 -93q14 -5 38.5 -8.5t41.5 -4.5l18 -1q-57 -4 -89 -14q19 -28 63 -66q-55 38 -86 48
q-5 -13 -8.5 -41.5t-4.5 -45.5t-1 -22q-2 67 -15 103q-12 -10 -30.5 -27.5t-29.5 -30.5l-12 -13q44 58 55 92z" />
    <glyph glyph-name="period" unicode="." horiz-adv-x="191" 
d="M86 51q72 4 100 21q8 5 14 36t7 53t1 29q3 -106 23 -119q11 -7 38 -11.5t49 -5.5l22 -1q-82 -6 -106 -21q-8 -5 -13.5 -37t-7 -55t-1.5 -30q0 5 -0.5 12.5t-2 27.5t-4.5 36t-8.5 30.5t-12.5 17.5q-10 5 -34.5 9t-44.5 6zM168 112q6 0 10 -4.5t4 -10.5t-4 -10.5t-10 -4.5
t-10.5 4.5t-4.5 10.5t4.5 10.5t10.5 4.5zM247.5 116q6.5 0 10.5 -4.5t4 -10.5t-4 -10.5t-10.5 -4.5t-10.5 4.5t-4 10.5t4 10.5t10.5 4.5zM170 24q6 0 10.5 -4.5t4.5 -10.5t-4.5 -10.5t-10.5 -4.5t-10.5 4.5t-4.5 10.5t4.5 10.5t10.5 4.5zM250.5 23q6.5 0 10.5 -4.5t4 -10.5
t-4 -10.5t-10.5 -4.5t-10.5 4.5t-4 10.5t4 10.5t10.5 4.5z" />
    <glyph glyph-name="A" unicode="A" horiz-adv-x="491" 
d="M406 262q-16 63 -34.5 130.5t-29.5 103.5l-10 37l-85 -280zM91 0q176 459 202 575q8 35 -2 77.5t-26 67.5h126q-10 -42 64.5 -312.5t119.5 -402.5q23 -68 64 -115h-183l2.5 5t4.5 14t4.5 24t1 34t-4.5 45q-15 79 -49 217q-76 -3 -124 -8q-26 -3 -49.5 -19.5t-27.5 -47.5
q-3 -32 -4 -57.5t9 -50t32 -46.5h-160z" />
    <glyph glyph-name="B" unicode="B" horiz-adv-x="398" 
d="M236 335q0 -180 2 -280q0 -25 6 -46q104 -1 159.5 35.5t52.5 122.5q-1 40 -14.5 71t-34 48t-45 29.5t-48.5 15t-45 5t-33 -0.5zM236 393q23 2 45 5.5t52.5 14t52.5 26.5t38.5 44t17.5 64q0 39 -13 68t-33 45t-49.5 25t-54.5 11.5t-55 2.5q-1 -144 -1 -306zM86 -39
q2 0 5.5 2t12.5 10t16 19.5t13 35t6 52.5q3 236 -4 507q-1 41 -8 71.5t-14.5 45t-17 23.5t-14 10.5t-5.5 1.5q6 1 18.5 3t60 4.5t105.5 0.5q76 -1 135 -23t96.5 -70t37.5 -115q-1 -59 -37 -102.5t-97 -68.5q69 -24 110 -71.5t41 -115.5q0 -100 -70.5 -159t-204.5 -62h-2h-24
q-80 0 -159 1z" />
    <glyph glyph-name="C" unicode="C" horiz-adv-x="375" 
d="M468 604q7 42 -16 60t-57 16q-63 -5 -108.5 -110t-50.5 -284q-2 -62 8.5 -126t32.5 -109q37 -77 83.5 -105t86.5 -6q15 9 23.5 24.5t10.5 29.5t1 30.5t-2.5 22.5t-2.5 9q30 -10 42.5 -48t-5.5 -62q-54 -72 -153 -57q-35 5 -68.5 27t-56.5 49.5t-37.5 51.5t-19.5 40
q-21 61 -51 122t-42 81t-19 30q18 31 28.5 52t16.5 36t23 56.5t36 87.5q72 173 202 217q27 9 62 -0.5t60 -39.5t19 -73q-2 -9 -4 -17t-6.5 -15.5t-8 -13t-10 -12t-9.5 -10t-11.5 -9.5t-11 -7.5t-11.5 -7.5t-10 -7q29 40 36 77z" />
    <glyph glyph-name="D" unicode="D" horiz-adv-x="427" 
d="M199 720q-2 -475 2 -691q0 -24 6 -48q54 3 99 23t82 59.5t58.5 106.5t22.5 156q1 76 -12.5 138.5t-35 102t-51 69.5t-55 45t-54 24.5t-41 11.5t-21.5 3zM41 -70q2 0 5.5 2t13 10.5t17 21t13.5 36.5t7 55q3 248 -5 534q-1 43 -8 75t-15.5 47.5t-18 25t-14 11t-6.5 1.5
q3 1 8.5 2t25.5 4t42 4.5t58 1t74 -4.5q12 -2 22 -3q63 -4 119 -31.5t100.5 -75.5t70.5 -123.5t26 -168.5q0 -197 -100 -307.5t-280 -117.5h-21q-70 0 -134 1z" />
    <glyph glyph-name="E" unicode="E" horiz-adv-x="432" 
d="M148 0q2 1 4.5 5t7.5 31.5t5 71.5q2 69 -3 237.5t-6 226.5q-1 56 -8.5 93t-15.5 46l-7 9h408l5 -107q-1 2 -3 4.5t-10 10t-18.5 13t-29.5 10t-41 4.5l-164 3l3 -243q83 1 122 15t58 42l2 -128q-33 34 -180 38l4 -317q84 -1 156 0q34 0 61 6t42 14t25 16.5t13 14.5l3 6
q-4 -27 -12.5 -57t-14.5 -48l-6 -18z" />
    <glyph glyph-name="F" unicode="F" horiz-adv-x="411" 
d="M166 0q2 1 5 4.5t8.5 30t6.5 71.5q3 203 0 456q-1 55 -10.5 94.5t-18.5 51.5l-9 13l406 -1l5 -110q-1 1 -3 4t-10 10t-18.5 13t-29.5 10.5t-41 4.5l-163 3l4 -243q82 1 120.5 15t57.5 42l2 -128q-33 35 -179 38l-1 -301q1 -67 20 -78h-152z" />
    <glyph glyph-name="G" unicode="G" horiz-adv-x="399" 
d="M468 604q7 42 -16 60t-57 16q-63 -5 -108.5 -110t-50.5 -284q-2 -62 8.5 -126t32.5 -109q25 -51 54.5 -79.5t56.5 -30.5t54 11q35 19 35 103v68t-1 69q-1 24 -5 40t-7 20l-4 4h87q-14 -10 -14 -71q0 -174 -6 -215q-2 -10 -6 -15q-1 -2 -3 -4q-57 -77 -157 -62
q-35 5 -68.5 27t-56.5 49.5t-37.5 51.5t-19.5 40q-21 61 -51 122t-42 81t-19 30q18 31 28.5 52t16.5 36t23 56.5t36 87.5q72 173 202 217q27 9 62 -0.5t60 -39.5t19 -73q-2 -9 -4 -17t-6.5 -15.5t-8 -13t-10 -12t-9.5 -10t-11.5 -9.5t-11 -7.5t-11.5 -7.5t-10 -7
q29 40 36 77z" />
    <glyph glyph-name="H" unicode="H" horiz-adv-x="466" 
d="M147 0q2 2 6 7.5t10.5 32t8.5 63.5q4 85 0 534q0 20 -3 36t-7.5 24.5t-9 14t-7.5 7.5l-3 1h153q-1 0 -3 -1t-6.5 -6t-7.5 -13t-6 -26t-4 -41q-1 -74 -1 -161l224 17q0 149 -2 224q-1 29 -10.5 55t-18.5 37l-9 11h163q-1 0 -3 -1t-7 -7.5t-9 -17t-7 -32t-4 -50.5
q-5 -538 2 -661q4 -80 29 -105l-150 -2q2 2 5.5 7.5t9.5 35.5t8 75q4 106 4 392q-89 -3 -145 -8q-31 -4 -54.5 -21t-26.5 -55q0 -215 3 -273q5 -66 25 -93h-147z" />
    <glyph glyph-name="I" unicode="I" horiz-adv-x="340" 
d="M326 -70q4 6 10 17.5t16.5 48.5t12.5 76q5 117 0 553q0 37 -6 61t-12 29l-6 5h146q-3 -1 -7.5 -5.5t-12 -30t-8.5 -63.5q-5 -455 1 -559q4 -67 28 -84z" />
    <glyph glyph-name="J" unicode="J" horiz-adv-x="317" 
d="M23 -25q3 -5 9 -14t25 -31t39 -38.5t50 -28.5t60 -8q23 3 41.5 9.5t39.5 23t35.5 41.5t23.5 67.5t9 98.5q0 64 -3 255.5t-7 287.5q-1 24 -9 45t-16 30l-8 9h154q-3 -3 -7.5 -8t-11 -28.5t-6.5 -55.5q5 -445 1 -547v-3q0 -87 -22.5 -152.5t-61.5 -100.5t-88.5 -48.5
t-105.5 -2t-112 44.5z" />
    <glyph glyph-name="K" unicode="K" horiz-adv-x="566" 
d="M159 801l132 -1q-3 -24 -3 -113t1 -166l1 -77q104 73 149 129q2 2 7 8q18 22 27 34.5t19 33t7.5 38.5t-15.5 36l113 -1q-5 -25 -25 -58t-45 -63t-49 -57t-40 -42l-16 -16q26 -47 92 -175.5t119 -227t81 -136.5l-182 -3q13 9 17.5 23.5t-0.5 33t-9.5 31t-15.5 33.5t-13 26
q-66 147 -164 341l-57 -34q1 -3 0.5 -37.5t0.5 -91.5t3.5 -112.5t8.5 -101t15 -55.5l-127 -1q6 10 9.5 48t4.5 79.5t0.5 93t-1 71.5t-0.5 31l-73 -57q-6 18 -0.5 35.5t16 33.5t23 28.5t20.5 19.5t9 7q-2 36 -2 97t-0.5 106t-3.5 92.5t-11.5 77.5t-22.5 39z" />
    <glyph glyph-name="L" unicode="L" horiz-adv-x="521" 
d="M315 720q-22 -29 -30 -70t-9 -162v-526q80 -28 162 -37q102 -11 159 11t72 67q0 -4 -0.5 -10t-4 -23t-9.5 -32.5t-19 -34.5t-30 -31q-35 -25 -129.5 -26t-170.5 21q-91 23 -163 49q4 4 9.5 10t15.5 24.5t10 36.5q1 54 2 255.5t2 288t-6 126t-26 63.5h165z" />
    <glyph glyph-name="M" unicode="M" horiz-adv-x="831" 
d="M77 2q177 457 204 573q7 35 -2.5 77.5t-25.5 67.5h122q-11 -12 14 -101.5t67.5 -218t53.5 -172.5q102 275 119 350q8 35 -1.5 75.5t-24.5 66.5h121q5 -37 33 -138t64 -222.5t45 -153.5q16 -60 55 -169.5t59 -135.5h-173q8 7 9 25t-4 45t-10.5 52.5t-14 60.5t-12.5 55
q-36 177 -107 397q-110 -334 -118 -378q-4 -28 -6 -45q0 -9 2 -17l3 -9q16 -43 49 -86h-174q2 6 3.5 16.5t4 46.5t-5.5 72q-14 79 -40.5 178t-46.5 160l-20 59q-112 -334 -118 -378q-3 -33 -4 -58t8.5 -49t31.5 -47z" />
    <glyph glyph-name="N" unicode="N" horiz-adv-x="480" 
d="M53 -123q41 31 56 85.5t16 161.5q4 264 -10 481q-1 30 -10.5 58.5t-17.5 42.5l-9 14l184 1q-12 -12 -13.5 -34t5 -46.5t21.5 -70.5q19 -56 76.5 -150.5t106 -163t48.5 -66.5q0 29 1 77t2 154.5t0 164.5q0 56 -9 89t-31 45h144q-16 -5 -22 -48t-7 -134q-2 -178 3 -358
q2 -95 13.5 -160t27.5 -73l-160 -3q25 25 35.5 60t1.5 46q-44 61 -123 172.5t-136 192.5l-56 81q1 -37 2 -94t3 -171.5t2 -156.5q-1 -129 -103 -182q-23 -12 -41 -15z" />
    <glyph glyph-name="O" unicode="O" horiz-adv-x="423" 
d="M458 352q-84 -10 -108 -26q-12 -7 -19.5 -52.5t-9.5 -78t-2 -41.5q-1 6 -1.5 17t-3 39.5t-6.5 51t-11.5 43t-17.5 25.5q-24 10 -99 20q3 -165 40.5 -254t93.5 -87q24 1 49 21t48 58.5t36.5 107.5t10.5 156zM458 359v1q-4 90 -19.5 160t-38 108t-45 56.5t-43.5 17.5h-1v-1
q-52 -1 -93 -95.5t-39 -247.5q73 8 102 25q12 7 20 49t10 81l2 38q1 -17 2 -42.5t9.5 -72t21.5 -54.5q24 -16 112 -23zM308 734q77 4 139 -49t93.5 -139t31.5 -184q-1 -108 -37 -196.5t-95 -137t-128 -48.5q-111 1 -182 106.5t-72 267.5q0 99 33.5 187.5t92 141.5t124.5 51z
M255.5 440q8.5 0 14.5 -6t6 -14.5t-6 -15t-14.5 -6.5t-15 6.5t-6.5 15t6.5 14.5t15 6zM369 445q9 0 15 -6t6 -14.5t-6 -15t-15 -6.5t-15 6.5t-6 15t6 14.5t15 6zM258 315q9 0 15 -6.5t6 -15t-6 -14.5t-15 -6t-15 6t-6 14.5t6 15t15 6.5zM373.5 313q8.5 0 14.5 -6t6 -15
t-6 -15t-14.5 -6t-15 6t-6.5 15t6.5 15t15 6z" />
    <glyph glyph-name="P" unicode="P" horiz-adv-x="347" 
d="M203 320q22 3 44.5 8.5t54 19t54.5 32.5t39.5 51t16.5 71t-12 70.5t-29.5 50t-42 32t-44.5 19t-41.5 8.5t-29 3h-12.5q0 -135 2 -365zM82 1v0v0zM82 1q2 0 4 1.5t8.5 8.5t11 18t8.5 32t4 48q3 219 -3 470q-1 37 -7 65.5t-13 42t-15.5 22t-12.5 10t-5 1.5q51 3 162 -1
q54 -2 100 -15t85 -38t62 -67t24 -98q2 -40 -10.5 -73t-30.5 -53t-42.5 -35.5t-41.5 -22.5t-34 -11q-64 -18 -132 -19q1 -107 2 -201q1 -28 8.5 -49.5t12 -27t7.5 -7.5z" />
    <glyph glyph-name="Q" unicode="Q" horiz-adv-x="516" 
d="M458 359v1q-4 90 -19.5 160t-38 108t-45 56.5t-43.5 17.5h-1v-1q-52 -1 -93 -95.5t-39 -247.5q73 8 102 25q12 7 20 49t10 81l2 38q1 -17 2 -42.5t9.5 -72t21.5 -54.5q24 -16 112 -23zM491 84q8 -10 30.5 -40.5t36.5 -41.5q42 -29 107 -10l-4.5 -4.5l-11 -11t-17 -14.5
t-21.5 -14.5t-25.5 -11.5t-28.5 -5t-30 4q-10 3 -19 7t-17.5 11t-14 11t-14.5 14.5t-11 13l-12 15t-11 13.5q-55 -40 -116 -40q-111 1 -182 106.5t-72 267.5q0 99 33.5 187.5t92 141.5t124.5 51q77 4 139 -49t93.5 -139t31.5 -184q-1 -166 -81 -278zM255.5 440
q8.5 0 14.5 -6t6 -14.5t-6 -15t-14.5 -6.5t-15 6.5t-6.5 15t6.5 14.5t15 6zM369 445q9 0 15 -6t6 -14.5t-6 -15t-15 -6.5t-15 6.5t-6 15t6 14.5t15 6zM258 315q9 0 15 -6.5t6 -15t-6 -14.5t-15 -6t-15 6t-6 14.5t6 15t15 6.5zM373.5 313q8.5 0 14.5 -6t6 -15t-6 -15
t-14.5 -6t-15 6t-6.5 15t6.5 15t15 6zM267 79v0v0zM267 79q3 3 8 7.5t20 16t30 19t37.5 12.5t42.5 1q13 -2 24 -6q33 90 29 223q-84 -10 -108 -26q-12 -7 -19.5 -52.5t-9.5 -78t-2 -41.5q-1 6 -1.5 17t-3 39.5t-6.5 51t-11.5 43t-17.5 25.5q-24 10 -99 20q3 -165 40.5 -254
t93.5 -87q40 1 77 49q-2 1 -4 3q-21 13 -51 17.5t-50 3.5q-17 -2 -19 -3z" />
    <glyph glyph-name="R" unicode="R" horiz-adv-x="490" 
d="M288 319q23 4 45.5 9.5t54 19t54.5 32.5t39.5 51t15.5 71q-1 48 -17 83t-37.5 53.5t-52.5 29.5t-53.5 13.5t-49.5 3.5q0 -185 1 -366zM172 0q1 1 3 2.5t7 8.5t9 17.5t7.5 31.5t3.5 48q3 219 -4 471q-1 38 -6.5 66t-13.5 42t-15 22t-13 10l-5 1q52 1 163 0
q142 -2 211.5 -56.5t69.5 -162.5q0 -39 -14.5 -73t-35.5 -54.5t-42 -35t-35 -20.5l-15 -6q5 -14 14 -38.5t34.5 -88.5t48.5 -114t50 -95t44 -53l-146 -1q24 27 -115 346l-10 23q-34 -4 -79 -4q1 -127 2 -202q1 -28 8 -49.5t11 -27t7 -8.5h-144z" />
    <glyph glyph-name="S" unicode="S" horiz-adv-x="322" 
d="M114 80q4 -7 10 -19t25.5 -41t39 -50.5t48 -37.5t54.5 -12q35 5 56 30t24 64.5t-8 86.5t-41.5 100.5t-75.5 102.5q-58 64 -87.5 128t-32 110t11 89.5t28.5 66.5t33 40q23 24 51 36.5t50.5 12t42 -4t30.5 -8.5l11 -5q-1 -1 29 -124q-26 42 -57.5 61t-58.5 14t-49.5 -23
t-34.5 -49t-9 -65q4 -41 29.5 -86.5t61 -88t72 -87t65.5 -100.5t37 -112q6 -45 -6 -89.5t-36.5 -79t-61 -55.5t-76.5 -23.5t-85 21t-84 74.5z" />
    <glyph glyph-name="T" unicode="T" horiz-adv-x="537" 
d="M451 0h-132q16 17 19.5 43.5t4.5 103.5q0 60 -1 169.5t-2 189.5l-1 80q-121 -39 -190 -44q-26 -2 -48 6.5t-34.5 20t-21.5 27t-11.5 21.5t-3.5 10q23 -10 55.5 -11.5t62 2t57.5 11.5q24 6 92.5 25.5t110 30t97 20.5t94 7t59.5 -19q22 -17 26.5 -44.5t-2.5 -46.5l-6 -19
q-17 54 -107 51q-30 -1 -65.5 -7.5t-56.5 -11.5l-21 -6l-1 -422q0 -102 5 -133.5t21 -53.5z" />
    <glyph glyph-name="U" unicode="U" horiz-adv-x="522" 
d="M143 599h160q-15 -30 -27 -95q-6 -33 -9 -67.5t-2.5 -78.5t1.5 -69t4.5 -84t4.5 -79q5 -94 46.5 -137.5t99.5 -45.5q62 -1 101 57t43 138q3 76 -1.5 223.5t-11.5 238.5q-3 42 -12 72.5t-16 38.5l-8 9h154q-13 -15 -21.5 -60t-11 -105t-4 -130.5t-0.5 -135.5t0 -121
q-1 -75 -20 -130t-51 -85t-68 -43.5t-78 -13.5q-117 -1 -171.5 59t-62.5 199q-1 29 -5 106t-6.5 114t-6.5 90.5t-9.5 85.5t-11.5 49z" />
    <glyph glyph-name="V" unicode="V" horiz-adv-x="514" 
d="M663 620q-180 -454 -206 -570q-9 -34 -1 -75t23 -65l-117 1q-5 37 -34.5 152t-72 269.5t-46.5 168.5q-8 34 -18.5 63t-18.5 47t-20 38t-17 28t-18 24t-15 20h210q-1 0 -3.5 -1.5t-8.5 -7t-8.5 -15.5t-4.5 -27t3 -41q14 -79 46 -213t57 -229l25 -94q114 331 120 376
q5 38 5 58.5t-8.5 46t-31.5 47.5z" />
    <glyph glyph-name="W" unicode="W" horiz-adv-x="729" 
d="M877 720q-24 -31 -103.5 -274.5t-100.5 -337.5q-7 -31 1.5 -69t22.5 -61h-109q-6 49 -101 382q-103 -266 -120 -340q-17 -72 7 -111h-97q-5 33 -28 119.5t-53.5 192.5t-37.5 134q-20 75 -51.5 168.5t-53.5 109.5l173 2q0 -2 -1.5 -5.5t-5 -15.5t-5 -25t-1.5 -33.5
t4 -41.5q12 -71 41 -184.5t52 -192.5l23 -78q102 298 107 337q10 81 -14 161q-19 46 -35 67l157 -1q-2 -5 -3.5 -13.5t-4 -38t2.5 -59.5q1 -1 2 -1q0 -1 -1 -4q1 -2 1 -5q12 -71 35.5 -160t40.5 -142l17 -54q122 389 132 428q11 45 11.5 70t-5.5 38.5t-25 37.5h126z" />
    <glyph glyph-name="X" unicode="X" horiz-adv-x="486" 
d="M626 0h-193q31 41 -85 237q-119 -202 -141 -250q-14 -32 -14 -54t12 -42l-163 1q43 19 272 400q-6 11 -17 29t-14 22q-128 209 -232 266l219 4q-11 -11 -12.5 -26.5t7 -37t15.5 -36.5t23.5 -42.5l22.5 -37.5q15 -28 35 -62q82 138 96 166q11 22 20 44.5t16 50t5 51.5
t-15 37h151q-125 -208 -240 -404q69 -112 135.5 -205t96.5 -111z" />
    <glyph glyph-name="Y" unicode="Y" horiz-adv-x="445" 
d="M285 0q20 20 26.5 40t6.5 55q1 62 -3 219q-85 201 -133 314q-12 30 -28 53t-25 31l-10 9l172 -1q-28 -10 -29.5 -33t13.5 -56l96 -243q80 208 107 283q5 16 -0.5 28.5t-13.5 16.5l-8 5h137l-12 -12t-29 -41.5t-38 -78.5l-104 -272q0 -153 1 -222q1 -35 8.5 -55.5
t26.5 -38.5z" />
    <glyph glyph-name="Z" unicode="Z" horiz-adv-x="570" 
d="M300 586l77 135l307 -1l-270 -638q9 -1 25 -2.5t59.5 -2t80.5 3.5t77.5 17t61.5 34l-63 -131h-372l260 633h-20.5t-47 -1.5t-64 -6t-61.5 -15t-50 -25.5z" />
    <glyph glyph-name="a" unicode="a" horiz-adv-x="383" 
d="M347 195l-53 203l-64 -210zM113 0q132 343 152 430q5 25 -2.5 57t-19.5 51l92 1q4 -28 25 -104t48.5 -168t33.5 -116q12 -44 43.5 -129.5t46.5 -104.5l-134 -2q2 12 3 32.5t-5.5 64t-20.5 89.5q-10 31 -21 69q-55 -2 -91 -6q-19 -2 -36.5 -14.5t-20.5 -35.5
q-7 -33 -2 -61.5t29 -52.5h-120z" />
    <glyph glyph-name="b" unicode="b" horiz-adv-x="351" 
d="M253 255q0 -144 1 -223q1 -20 6 -37q82 -1 126 28t42 97q-1 33 -12 57.5t-27 38t-35.5 23.5t-38.5 12t-35.5 4t-26.5 0zM253 301q18 1 35.5 4t42 11.5t42 21t30.5 34.5t13 51q1 31 -9.5 54t-26.5 35.5t-39.5 20t-43.5 9.5t-44 2v-243zM134 -43q1 0 4 1.5t10 8t12.5 16
t10 27.5t5.5 41q2 188 -4 404q0 32 -5.5 56.5t-12 36t-13 18.5t-11.5 9l-5 1q5 1 15 2.5t48 3t84 0.5q93 -2 153.5 -44t60.5 -122q-1 -46 -29.5 -80.5t-77.5 -54.5q55 -19 88 -57t33 -92q-1 -79 -57 -126.5t-162 -49.5l1 -1z" />
    <glyph glyph-name="c" unicode="c" horiz-adv-x="405" 
d="M453 387q2 4 3.5 10.5t3 24t-1 31t-14.5 26t-33 15.5q-24 3 -49 -12t-47 -45t-35 -82.5t-10 -117.5q3 -75 47.5 -138t101.5 -71q28 -4 61.5 6.5t53 22.5t19.5 13q-7 -30 -52 -52q-34 -16 -65 -19.5t-71 2.5q-57 6 -97.5 38t-48.5 57q-11 35 -27.5 64.5t-27.5 40.5l-11 12
q23 23 27 44t8.5 54t27.5 73q32 57 69 91t102 51q23 6 52 -0.5t49.5 -26t15.5 -47.5q-9 -44 -51 -65z" />
    <glyph glyph-name="d" unicode="d" horiz-adv-x="343" 
d="M211 538q-1 -353 2 -514q0 -17 5 -35q40 2 73 17t61 44t44 79t17 116q0 57 -10 103t-26 75.5t-38 52t-41 34t-40 18.5t-30.5 8.5t-16.5 1.5zM94 -49q2 0 4.5 1.5t9.5 8t12.5 15.5t10 27t5.5 41q2 184 -4 397q-1 32 -6 55.5t-11.5 35t-13 18.5t-10.5 8l-5 2q6 1 17.5 3
t52 5t84.5 -3q9 -1 17 -2q47 -3 88.5 -23.5t74.5 -56t52.5 -92t19.5 -125.5q-1 -146 -75 -228.5t-207 -87.5q-9 0 -16 1h-100z" />
    <glyph glyph-name="e" unicode="e" 
d="M137 1q2 0 4.5 3t7 21.5t4.5 49.5q1 48 -2.5 165t-3.5 158q-1 38 -6.5 64t-10.5 32l-5 7h285l4 -75q-2 3 -6.5 8t-22.5 13t-43 8l-114 3l2 -170q58 1 85 10.5t40 29.5l2 -89q-23 24 -126 26l3 -220h109q24 0 42.5 4t29 10t17.5 11.5t9 9.5l3 4q-3 -18 -9 -39t-10 -33
l-4 -13z" />
    <glyph glyph-name="f" unicode="f" horiz-adv-x="288" 
d="M160 1q13 4 14 73q2 141 0 318q0 38 -6.5 65t-13.5 35l-6 8h285l4 -75q-2 3 -6.5 8t-22.5 13t-43 9l-115 2l3 -170q57 1 84.5 10.5t40.5 29.5l2 -89q-24 24 -126 26q-1 -142 -1 -209q0 -7 1.5 -13.5t3.5 -11.5t4.5 -10t5 -8.5t4.5 -6t4 -3.5l1 -1h-117z" />
    <glyph glyph-name="g" unicode="g" horiz-adv-x="399" 
d="M477 56q2 65 -1 136q-1 24 -5 40t-7 20l-4 4h87l-4 -4t-7.5 -20.5t-4.5 -44.5q0 -79 -5 -138q-1 -15 -11 -23q-2 -2 -14 -8q-34 -17 -64.5 -20.5t-71.5 2.5q-57 7 -97.5 39t-48.5 57q-5 16 -11 31t-12.5 26.5t-12.5 21.5t-11.5 16.5t-9.5 11.5t-6 7t-3 2q23 23 27 44.5
t8.5 54.5t27.5 73q32 57 69 91t102 51q23 6 52 -0.5t50 -26t15 -47.5q-9 -44 -50 -65q1 4 2.5 10.5t3 24t-1 31t-14.5 26t-33 15.5q-24 3 -49 -12t-47 -45t-35 -82.5t-10 -118.5q3 -75 48 -137.5t101 -71.5q19 -2 38 0h1q9 2 13.5 8t5.5 21zM153 212v0v0z" />
    <glyph glyph-name="h" unicode="h" horiz-adv-x="407" 
d="M209 0q15 8 18 66q3 46 3.5 176t-2.5 198q-1 16 -8 31t-14 22l-6 7h132q-2 -1 -5.5 -3t-8.5 -18t-6 -42q-1 -52 -1 -112l134 9q-1 108 -3 162q-1 21 -9.5 39t-16.5 26l-8 7h147q-1 0 -2.5 -0.5t-6 -5t-8 -12t-6.5 -22.5t-3 -35q-5 -377 1 -463q4 -57 23 -73l-132 -2
q2 1 5 5t8.5 25t7.5 53q3 72 3 270q-48 -2 -80 -5q-44 -5 -55 -40q0 -161 3 -204q4 -46 22 -59h-126z" />
    <glyph glyph-name="i" unicode="i" horiz-adv-x="432" 
d="M219 719q102 5 142 29q12 7 20.5 49t10.5 80l2 39q0 -17 1.5 -42.5t9.5 -72t21 -54.5q15 -10 53.5 -16.5t69.5 -8.5l31 -1q-116 -9 -150 -30q-12 -7 -19.5 -50t-9.5 -83l-2 -40q0 7 -0.5 18t-3.5 39t-7 50.5t-11.5 43.5t-17.5 25q-15 7 -49.5 13t-62.5 9zM455.5 806
q8.5 0 14.5 -6t6 -15t-6 -15t-14.5 -6t-15 6t-6.5 15t6.5 15t15 6zM459.5 673q8.5 0 15 -6.5t6.5 -15t-6.5 -14.5t-15 -6t-14.5 6t-6 14.5t6 15t14.5 6.5zM329.5 809q8.5 0 14.5 -6t6 -15t-6 -15t-14.5 -6t-15 6t-6.5 15t6.5 15t15 6zM336.5 679q8.5 0 15 -6t6.5 -15
t-6.5 -15t-15 -6t-14.5 6t-6 15t6 15t14.5 6zM329 0q3 1 6.5 4t10.5 19.5t8 42.5q3 47 3.5 177t-2.5 198q-1 16 -6 31t-10 21l-5 7h130q-1 -1 -2.5 -1.5t-6 -4t-8 -9.5t-6 -18t-2.5 -29q-5 -308 0 -378q4 -47 22 -60h-132z" />
    <glyph glyph-name="j" unicode="j" horiz-adv-x="307" 
d="M99 -29q2 -4 7 -11t20 -24.5t31 -30.5t39.5 -22.5t46.5 -6.5t39.5 10.5t32 26.5t23.5 56t8 92v5q3 311 0 374q-1 17 -9 32t-16 21l-8 7l142 -1q-1 0 -2.5 -0.5t-5.5 -4t-7.5 -9.5t-6.5 -18.5t-3 -28.5q0 -25 1 -194t-1 -188v-1q0 -69 -18 -121t-48.5 -80t-69.5 -38.5
t-83.5 -1.5t-88.5 35z" />
    <glyph glyph-name="k" unicode="k" horiz-adv-x="495" 
d="M178 651h115q-2 -16 -1.5 -47.5t2 -74.5t3 -80t3.5 -64l1 -26q10 6 26 15.5t49.5 35t48.5 46.5q13 16 17 35t2 30l-3 10l112 2q-10 -15 -46.5 -50t-67.5 -63l-32 -27q21 -38 74.5 -141.5t96.5 -183t65 -110.5l-147 -2q11 7 14.5 18.5t-0.5 26.5t-8 25.5t-12.5 27.5
t-10.5 20q-24 53 -57 122t-54 111l-21 42l-51 -33q0 -12 0.5 -31t2 -70t4.5 -91t8.5 -77.5t12.5 -45.5l-103 -1q11 18 11 261l-59 -46q-7 21 7 46t30 39.5t17 14.5q0 18 -1 55t-2 61.5t-3 59t-5 57.5t-8 46.5t-12.5 37.5t-17.5 19z" />
    <glyph glyph-name="l" unicode="l" 
d="M135 0q2 1 5 4t8 21.5t5 49.5q1 49 -2.5 166.5t-3.5 158.5q-1 38 -5 63.5t-7 30.5l-4 6h114q-2 -2 -4.5 -6.5t-7 -28.5t-4.5 -60q1 -129 5 -360h109q24 0 42.5 4.5t29 10t17.5 11.5t9.5 9.5t2.5 4.5q-3 -18 -9 -39.5t-10 -33.5l-4 -13z" />
    <glyph glyph-name="m" unicode="m" horiz-adv-x="691" 
d="M169 1q127 343 147 430q6 26 -1.5 58t-19.5 51h91q-8 -8 9 -71.5t52.5 -173.5t40.5 -125q76 207 89 263q6 26 -1.5 58t-19.5 51l92 1q3 -28 24 -104t48.5 -168.5t33.5 -116.5q12 -45 41.5 -126.5t43.5 -101.5h-129q6 5 7 18.5t-2.5 34t-8 39.5t-11 45t-9.5 41
q-27 133 -80 298q-84 -250 -88 -284q-3 -23 -3 -34q22 -60 39 -83h-131q2 4 3 12t3 35t-4 54q-11 59 -30.5 133t-34.5 120l-15 44q-84 -249 -88 -283q-1 -6 -3.5 -22t-3 -22t-0.5 -18t2.5 -19t8 -16.5t14.5 -18.5z" />
    <glyph glyph-name="n" unicode="n" horiz-adv-x="363" 
d="M253 -97l-101 5q20 22 18 183q-3 212 -11 330q-1 20 -8.5 40t-14.5 29l-7 10h121q-14 -14 -7.5 -38t33.5 -65q20 -30 60 -82t70 -89l31 -37q0 20 1 52.5t2.5 105t1.5 113.5q-2 130 -27 143l97 -2q-3 -1 -5 -4.5t-3.5 -10.5t-2.5 -14.5t-2 -19.5t-1.5 -22t-0.5 -25
t-0.5 -25.5t-0.5 -27v-26.5q0 -22 -1.5 -88.5t-2 -112.5t0 -100.5t3.5 -86.5t8 -38h-55q1 8 -11.5 30.5t-19.5 31.5l-190 240l2 -239q-1 -115 23 -160z" />
    <glyph glyph-name="o" unicode="o" 
d="M244 512h-1q-40 -1 -71.5 -74t-29.5 -190q3 -129 31.5 -198.5t71.5 -67.5q19 1 38.5 16.5t37 46t27.5 84.5t8 122q-3 69 -15 122.5t-29 82.5t-34.5 43t-33.5 14v-1zM241 537v1q59 3 106 -38t71.5 -107t24.5 -140q0 -125 -59 -209.5t-140 -83.5q-85 1 -139.5 81.5
t-54.5 205.5q-1 75 25 142.5t70.5 108.5t95.5 39z" />
    <glyph glyph-name="p" unicode="p" horiz-adv-x="349" 
d="M243 276q20 3 39 7.5t46.5 16.5t47.5 28t34.5 44t14.5 62t-10 61t-26.5 43t-36 27.5t-39 16.5t-35.5 7.5t-26 2.5h-10q-1 -116 1 -316zM141 0q1 0 3 1t7 7.5t8.5 16t7 27.5t3.5 42q2 189 -3 406q-1 33 -5 57t-9.5 35.5t-11 18t-8.5 7.5l-4 1q4 0 13 1t42.5 2.5t77.5 -1.5
q47 -1 87 -12.5t73.5 -33t53.5 -58t21 -84.5q1 -34 -9.5 -63t-26 -46t-37 -31t-36 -19.5t-29.5 -9.5q-56 -15 -115 -16q1 -93 2 -174q1 -24 7 -43t10 -24t6 -7h-128z" />
    <glyph glyph-name="q" unicode="q" horiz-adv-x="420" 
d="M436 43q6 -7 23 -30.5t28 -31.5q14 -11 34.5 -13t33.5 2l13 3l-3 -3t-8 -8.5t-12.5 -11t-17 -11t-19.5 -9t-21.5 -4t-22.5 3.5q-8 2 -14.5 5t-13.5 8.5t-11 8.5t-11 11t-8.5 9.5t-9 11.5t-8.5 10q-42 -30 -88 -30q-85 1 -139 81.5t-54 203.5q-1 75 25 142.5t70.5 108
t94.5 38.5q59 4 105.5 -37t71 -106.5t24.5 -139.5q-1 -127 -62 -212zM266 40q5 5 15 13.5t37.5 20.5t52.5 8q9 -2 18 -5q26 71 22 176q-3 69 -15 122t-29 82t-34.5 43t-32.5 14h-1v-1q-40 -1 -71 -73.5t-29 -189.5q2 -128 30.5 -197t71.5 -67q31 1 59 37q-2 1 -3 2
q-16 11 -39 14t-38 2z" />
    <glyph glyph-name="r" unicode="r" horiz-adv-x="417" 
d="M264 277q19 3 38.5 7.5t46.5 16.5t47 28t34 43.5t14 61.5t-10 60.5t-26 42.5t-35.5 27.5t-38.5 16.5t-35.5 7.5t-26.5 2.5h-9q-1 -116 1 -314zM156 0q1 0 3.5 1.5t8.5 8.5t10.5 16.5t8.5 28t4 41.5q3 188 -3 404q-1 32 -6 56.5t-11.5 36t-13 18.5t-10.5 8l-4 1
q44 4 139 0q47 -2 86.5 -13t73 -32.5t53 -57.5t21.5 -84q1 -34 -10.5 -63t-28.5 -46.5t-34 -30t-29 -17.5l-13 -5q5 -12 12.5 -33t29.5 -76t41.5 -98t43 -81.5t38.5 -45.5h-126q23 25 -107 316q-30 -3 -68 -4q1 -91 2 -173q0 -23 8 -43t12 -25.5t7 -7.5h-138z" />
    <glyph glyph-name="s" unicode="s" horiz-adv-x="274" 
d="M114 74q2 -4 6 -11t18 -24.5t28.5 -30.5t36 -22.5t42.5 -6.5q29 4 52 18t34.5 38t8.5 54t-28.5 68.5t-73.5 77.5q-51 43 -77 87.5t-28.5 78t8 64t24.5 48t28 27.5q26 19 63.5 24.5t62.5 1.5l24 -4l24 -88q-26 37 -55 47.5t-50 -2t-33 -39t-9 -56.5q4 -28 25 -57.5
t49 -56.5t56.5 -56t49 -67t22.5 -78q2 -39 -14 -75.5t-45.5 -62t-66.5 -40t-80 -9.5t-82 30z" />
    <glyph glyph-name="t" unicode="t" horiz-adv-x="569" 
d="M305 0q16 22 20.5 53.5t5.5 133.5q0 61 -0.5 166.5t-0.5 180.5l-1 74q-74 24 -140 26q-89 3 -105 -52q-2 3 -4 7.5t-5 17t-3 24.5t6.5 26.5t19.5 24.5q26 20 63.5 25t86.5 -4.5t90 -21.5t99 -30.5t89 -26.5q135 -36 192 -11q-2 -4 -4.5 -9.5t-13.5 -19t-24 -23.5
t-35.5 -17.5t-48.5 -5.5q-31 2 -75 14t-74 23l-29 11q-1 -33 -2 -86t-3 -169t-1 -176q1 -68 8.5 -102t24.5 -53h-136z" />
    <glyph glyph-name="u" unicode="u" horiz-adv-x="446" 
d="M202 500h122q-11 -25 -20 -76q-5 -27 -7.5 -54t-2 -62t1.5 -55t3.5 -66.5t3.5 -62.5q4 -74 36.5 -108.5t78.5 -35.5q50 -2 80.5 44t33.5 110q4 88 -5 306q-1 18 -6.5 33t-11.5 21l-5 6l91 -1q-10 -17 -11.5 -66.5t1 -139.5t1.5 -135q0 -60 -15 -103.5t-40.5 -67
t-54 -34.5t-61.5 -11q-94 0 -136.5 47.5t-49.5 157.5q-2 37 -5 105.5t-5 108.5t-6 81.5t-11 57.5z" />
    <glyph glyph-name="v" unicode="v" horiz-adv-x="411" 
d="M559 500q-142 -360 -164 -452q-6 -27 2 -61t20 -54h-97q-3 29 -26.5 120.5t-58 219t-36.5 133.5q-8 32 -17 57t-20.5 45.5t-17 29t-19.5 26.5t-14 19h179q-2 0 -4 -1t-8.5 -6t-9.5 -13t-6 -22t1 -34q11 -62 36.5 -168.5t45.5 -181.5l20 -75q90 263 95 298q8 35 4 65
t-29 55h124z" />
    <glyph glyph-name="w" unicode="w" horiz-adv-x="618" 
d="M767 499q-130 -344 -150 -431q-6 -25 1 -57.5t19 -51.5h-91q8 9 -8.5 72.5t-51.5 173.5t-39 126q-78 -207 -92 -263q-6 -26 1.5 -58t19.5 -51h-92q-3 27 -23.5 103.5t-47 169t-33.5 116.5q-12 45 -40.5 127t-43.5 101h129q-5 -5 -6 -18.5t2.5 -34t7.5 -39.5t10.5 -45.5
t9.5 -41.5q26 -132 78 -297q67 196 85 263q10 45 -2 80q-16 40 -29 57l131 -1q-1 -4 -2.5 -12t-3.5 -35t4 -54q10 -59 29.5 -133.5t33.5 -119.5l15 -45q86 250 90 283q7 33 2.5 62.5t-28.5 54.5z" />
    <glyph glyph-name="x" unicode="x" horiz-adv-x="422" 
d="M570 1l-165 -1q27 35 -76 211q-61 -89 -77 -122q-19 -42 6 -89h-168q40 17 212 255q-6 10 -17 28q-105 171 -190 218l176 -1q-8 -9 -9 -21.5t5.5 -28.5t14 -29.5t20 -33.5t18.5 -31q10 -18 23 -42q42 59 48 72q11 21 14.5 30t8.5 26t1.5 31t-13.5 28h138
q-90 -118 -170 -231q57 -92 116 -173t84 -96z" />
    <glyph glyph-name="y" unicode="y" horiz-adv-x="395" 
d="M322 -1q13 13 16 27.5t3 43.5v150q-53 137 -87 216q-9 20 -20 36.5t-18 22.5l-7 5h122q-7 -3 -11 -6t-5 -6.5t0 -9t3 -9.5t6 -13t6 -14l58 -150q54 130 69 175q4 13 1.5 20t-7.5 10l-4 3h97q-3 -2 -8.5 -7.5t-20.5 -29t-27 -54.5l-71 -187l-1 -157q0 -24 5 -38.5
t19 -26.5z" />
    <glyph glyph-name="z" unicode="z" horiz-adv-x="438" 
d="M295 410l51 92l217 1l-188 -445q6 -1 17 -2t41.5 -1.5t56.5 2t54 12t43 24.5l-44 -92h-260l181 442q-14 1 -36 0.5t-68 -8.5t-65 -25z" />
    <glyph glyph-name="agrave" unicode="&#xe0;" horiz-adv-x="362" 
d="M345 202l-57 211l-66 -217zM100 0q137 355 157 446q6 26 -2 59.5t-20 52.5l95 1q-8 -34 46 -249t83 -301q19 -55 51 -90l-126 -5q2 3 4 10t5.5 31t-3.5 53q-11 62 -38 169q-59 -2 -96 -6q-21 -2 -39 -15t-21 -37q-6 -35 -1.5 -64.5t29.5 -54.5h-124z" />
    <glyph glyph-name="aacute" unicode="&#xe1;" horiz-adv-x="359" 
d="M340 210l-55 203q-39 -114 -65 -200q14 5 27 13q13 7 22 49t12 80l3 38q0 -17 0.5 -42.5t8 -72t20.5 -55.5q11 -8 27 -13zM97 0q137 355 157 446q6 26 -1.5 59.5t-20.5 52.5l95 1q-8 -34 46 -249t83 -301q19 -55 51 -90l-126 -5q2 3 4 10t5.5 31t-3.5 53q-12 64 -40 176
q-18 -8 -32 -16q-12 -7 -20.5 -52t-11 -79t-2.5 -41q-1 6 -1 17t-2 39.5t-5.5 51t-11 43.5t-17.5 26q-14 7 -32 14q-17 -55 -18 -68q-7 -35 -2.5 -64.5t29.5 -54.5h-124z" />
    <glyph glyph-name="ograve" unicode="&#xf2;" horiz-adv-x="319" 
d="M167 236q4 -121 32.5 -186.5t69.5 -63.5q41 1 77 65.5t34 186.5q-55 -9 -74 -21q-12 -7 -19.5 -52.5t-9.5 -78t-2 -42.5q0 7 -0.5 18t-3.5 39t-7 50.5t-11.5 43.5t-17.5 25q-18 9 -68 16zM268 516h-1q-40 -1 -71.5 -73.5t-29.5 -189.5q49 8 71 21q12 7 20.5 49t10.5 80
l2 39q0 -17 1.5 -42.5t9.5 -72t21 -54.5q19 -13 78 -20v2q-3 69 -15 122.5t-29 82.5t-34.5 43t-33.5 14v-1zM265 541v1q59 3 106 -38t71.5 -107t24.5 -140q0 -125 -59 -209.5t-140 -83.5q-85 1 -139.5 81.5t-54.5 205.5q-1 75 25 142.5t70.5 108.5t95.5 39zM331.5 332
q8.5 0 14.5 -6t6 -15t-6 -15t-14.5 -6t-15 6t-6.5 15t6.5 15t15 6zM335.5 199q8.5 0 15 -6.5t6.5 -15t-6.5 -14.5t-15 -6t-14.5 6t-6 14.5t6 15t14.5 6.5zM205.5 335q8.5 0 14.5 -6t6 -15t-6 -15t-14.5 -6t-15 6t-6.5 15t6.5 15t15 6zM212.5 205q8.5 0 15 -6t6.5 -15
t-6.5 -15t-15 -6t-14.5 6t-6 15t6 15t14.5 6z" />
    <glyph glyph-name="ugrave" unicode="&#xf9;" horiz-adv-x="456" 
d="M187 500h126q-11 -24 -20 -75q-5 -27 -7.5 -54t-2 -62t1 -55t3.5 -66.5t4 -62.5q4 -74 36.5 -108.5t78.5 -35.5q49 -2 80 44t34 110q3 60 -0.5 176.5t-9.5 188.5q-2 34 -10.5 58t-16.5 30l-7 7l128 1q-11 -11 -17.5 -47t-8.5 -83.5t-3 -103.5t-0.5 -107.5t-0.5 -95.5
q-1 -60 -16 -103.5t-40 -67t-54 -34.5t-62 -11q-93 0 -135.5 47.5t-49.5 157.5q-1 23 -4 83.5t-5 90t-5.5 72t-7.5 67.5t-9 39z" />
    <glyph glyph-name="uacute" unicode="&#xfa;" horiz-adv-x="334" 
d="M163 237q1 -19 3.5 -56.5t3.5 -55.5q4 -73 36.5 -108t78.5 -36q49 -1 80 44.5t34 109.5q1 38 0 106q-71 -10 -93 -24q-12 -7 -19.5 -52.5t-9.5 -78t-2 -42.5q0 7 -0.5 18t-3.5 39t-7 50.5t-11.5 43.5t-17.5 25q-19 9 -72 17zM331.5 332q8.5 0 14.5 -6t6 -15t-6 -15
t-14.5 -6t-15 6t-6.5 15t6.5 15t15 6zM335.5 199q8.5 0 15 -6.5t6.5 -15t-6.5 -14.5t-15 -6t-14.5 6t-6 14.5t6 15t14.5 6.5zM205.5 335q8.5 0 14.5 -6t6 -15t-6 -15t-14.5 -6t-15 6t-6.5 15t6.5 15t15 6zM212.5 205q8.5 0 15 -6t6.5 -15t-6.5 -15t-15 -6t-14.5 6t-6 15
t6 15t14.5 6zM65 500h126q-11 -23 -21 -75q-12 -68 -8 -173q53 9 75 22q12 7 20.5 49t10.5 80l2 39q0 -17 1.5 -42.5t9.5 -72t21 -54.5q22 -15 97 -22q-2 145 -10 250q-3 33 -11.5 57t-15.5 31l-7 7l127 1q-10 -12 -17 -46t-9 -93t-2.5 -98.5t-0.5 -112.5v-88
q-1 -59 -16 -102.5t-40.5 -67.5t-54 -34.5t-61.5 -11.5q-93 0 -136 47.5t-49 157.5q-1 23 -4.5 83.5t-5 90t-5 72t-7.5 68t-9 38.5z" />
    <glyph glyph-name="uniF8FE" unicode="&#xf8fe;" horiz-adv-x="300" 
 />
    </font>
</defs>
</svg>
